# xmcd CD database file
#
# Track frame offsets:
#	150
#	20017
#	52997
#	79620
#	105912
#	138527
#	169397
#	195685
#	216832
#	241865
#
# Disc length: 3520 seconds
#
# Revision: 0
# Processed by: cddbd v1.5.2PL0 Copyright (c) Steve Scherf et al.
# Submitted via: CDex 1.70beta2
#
DISCID=820dbe0a
DTITLE=岡安芳明 - No Regrets
DYEAR=2007
DGENRE=Jazz
TTITLE0=Stuffy
TTITLE1=Time For Relax
TTITLE2=The Hustler
TTITLE3=Blues For Sugar Ray
TTITLE4=It's Now Or Never
TTITLE5=Mood Indigo
TTITLE6=Sharon
TTITLE7=Savanna
TTITLE8=Groove Area
TTITLE9=How About You
EXTD=YEAR: 2007
EXTT0=
EXTT1=
EXTT2=
EXTT3=
EXTT4=
EXTT5=
EXTT6=
EXTT7=
EXTT8=
EXTT9=
PLAYORDER=
